<svg width="65" height="64" viewBox="0 0 65 64" fill="none" xmlns="http://www.w3.org/2000/svg">
<rect width="64" height="64" transform="translate(0.666626)" fill="white"/>
<rect x="0.666626" width="64" height="64" fill="#E0EFFF"/>
<path d="M15.8363 23.008H21.7403C22.4763 23.008 23.1563 23.096 23.7803 23.272C24.4203 23.448 24.9643 23.712 25.4123 24.064C25.8763 24.4 26.2363 24.84 26.4923 25.384C26.7643 25.912 26.9003 26.536 26.9003 27.256C26.9003 28.232 26.6283 29.032 26.0843 29.656C25.5403 30.264 24.8363 30.712 23.9723 31V31.048C24.4843 31.08 24.9643 31.216 25.4123 31.456C25.8603 31.68 26.2443 31.984 26.5643 32.368C26.9003 32.736 27.1643 33.168 27.3563 33.664C27.5483 34.16 27.6443 34.696 27.6443 35.272C27.6443 36.04 27.4843 36.72 27.1643 37.312C26.8603 37.888 26.4363 38.376 25.8923 38.776C25.3483 39.176 24.7163 39.48 23.9963 39.688C23.2763 39.896 22.5003 40 21.6683 40H15.8363V23.008ZM18.1403 30.064H21.2843C21.7163 30.064 22.1243 30.024 22.5083 29.944C22.8923 29.848 23.2283 29.696 23.5163 29.488C23.8043 29.28 24.0283 29.016 24.1883 28.696C24.3643 28.376 24.4523 27.984 24.4523 27.52C24.4523 26.848 24.2363 26.264 23.8043 25.768C23.3723 25.272 22.6923 25.024 21.7643 25.024H18.1403V30.064ZM18.1403 37.984H21.5243C21.8763 37.984 22.2603 37.952 22.6763 37.888C23.1083 37.808 23.5083 37.664 23.8763 37.456C24.2443 37.232 24.5563 36.936 24.8123 36.568C25.0683 36.2 25.1963 35.712 25.1963 35.104C25.1963 34.096 24.8683 33.344 24.2123 32.848C23.5563 32.336 22.6683 32.08 21.5483 32.08H18.1403V37.984ZM32.9455 23.008V33.424C32.9455 33.952 33.0175 34.504 33.1615 35.08C33.3055 35.64 33.5455 36.16 33.8815 36.64C34.2175 37.12 34.6575 37.512 35.2015 37.816C35.7455 38.12 36.4175 38.272 37.2175 38.272C38.0175 38.272 38.6895 38.12 39.2335 37.816C39.7775 37.512 40.2175 37.12 40.5535 36.64C40.8895 36.16 41.1295 35.64 41.2735 35.08C41.4175 34.504 41.4895 33.952 41.4895 33.424V23.008H43.7935V33.784C43.7935 34.776 43.6255 35.68 43.2895 36.496C42.9535 37.296 42.4895 37.992 41.8975 38.584C41.3055 39.176 40.6095 39.632 39.8095 39.952C39.0095 40.272 38.1455 40.432 37.2175 40.432C36.2895 40.432 35.4255 40.272 34.6255 39.952C33.8255 39.632 33.1295 39.176 32.5375 38.584C31.9455 37.992 31.4815 37.296 31.1455 36.496C30.8095 35.68 30.6415 34.776 30.6415 33.784V23.008H32.9455ZM47.852 23.008H50.156V40H47.852V23.008Z" fill="#006CE4"/>
</svg>
